<?xml version="1.0" encoding="UTF-8"?>
<svg id="_レイヤー_2" data-name="レイヤー_2" xmlns="http://www.w3.org/2000/svg" viewBox="0 0 64 64">
  <defs>
    <style>
      .cls-1 {
        fill: #1e2088;
      }

      .cls-2 {
        fill: #fff;
      }

      .cls-3 {
        fill: gold;
      }
    </style>
  </defs>
  <g id="_レイヤー_1-2" data-name="レイヤー_1">
    <g>
      <rect class="cls-1" width="64" height="64"/>
      <path class="cls-3" d="M62.9849,37.7793c-.4863-2.2246-1.4102-4.3193-2.7485-6.2314-1.7207-2.4375-4.0054-4.1377-6.79-5.0547-1.5889-.5234-3.5674-.8057-5.9072-.8398h-16.6826v38.1465h16.6826c5.8813,0,10.3003-2.4697,13.1362-7.3438,1.9956-3.4502,3.0073-7.6807,3.0073-12.5732,0-1.9336-.2344-3.9863-.6978-6.1035ZM41.4639,35.2529h4.8564c2.5796,0,4.2729.6465,5.0322,1.9219.9253,1.6045,1.3945,4.0264,1.3945,7.2002,0,2.3057-.3276,4.2979-.9731,5.917-1.0664,2.666-2.7993,3.9082-5.4536,3.9082h-4.8564v-18.9473Z"/>
      <path class="cls-2" d="M30.8564,37.8802c-1.3864-.6296-3.0109-1.1708-4.916-1.6273l-7.4438-1.7871c-3.4185-.8145-4.7705-1.3516-5.3188-1.668-.9922-.5537-1.4346-1.2959-1.4346-2.4092,0-1.2842.4932-2.2158,1.5518-2.9316,1.1782-.7969,2.8252-1.2002,4.8945-1.2002,1.8877,0,3.4673.3203,4.6919.9492,1.7217.8926,2.6221,2.3789,2.7529,4.5439l.0679,1.1279h5.1543v-7.2246h4.5778c-.9249-2.1639-2.3363-3.9913-4.2633-5.4385-3.4106-2.5596-7.5713-3.8584-12.3662-3.8584-5.7319,0-10.1729,1.3965-13.2002,4.1504-3.0596,2.7832-4.6113,6.3252-4.6113,10.5264,0,4.6387,1.6445,8.1162,4.8818,10.332,1.8633,1.292,5.0479,2.4346,9.7373,3.4951l4.5762,1.0264c2.5332.5547,4.3906,1.1855,5.5093,1.8672.8945.5596,1.311,1.2881,1.311,2.293,0,1.9209-.9473,3.1543-2.9785,3.8779-1.1938.4219-2.8042.6348-4.7861.6348-3.1626,0-5.3843-.75-6.6016-2.2266-.6548-.7979-1.1089-2.0859-1.3506-3.8281l-.1436-1.0352H.29v1.2002c0,4.8545,1.7788,8.7334,5.2861,11.5293,2.4968,1.9896,5.6877,3.2557,9.5063,3.8008h8.8964c2.6271-.3884,4.9219-1.1507,6.8776-2.2709v-23.8488Z"/>
    </g>
  </g>
</svg>